# xmcd
#
# Track frame offsets: 
#        150
#        23760
#        47734
#        67284
#        89431
#        109291
#        131285
#        156271
#        174772
#        200016
#        223119
#        246410
#
# Disc length: 3545 seconds
#
# Revision: 1
# Processed by: cddbd v1.5.2PL0 Copyright (c) Steve Scherf et al.
# Submitted via: ExactAudioCopyFreeDBPlugin 1.0
#
DISCID=af0dd70c
DTITLE=Hong Ngoc - Vet Thuong Cuoi Cung
DYEAR=2009
DGENRE=Pop
TTITLE0=Vet Thuong Cuoi Cung
TTITLE1=Di Vang
TTITLE2=Co Ua
TTITLE3=Khuc Thuy Du
TTITLE4=Kiep Dam Me
TTITLE5=Dinh Menh
TTITLE6=Mat Le Cho Nguoi
TTITLE7=Xom Dem
TTITLE8=Lang Le Noi Nay
TTITLE9=Phut Cuoi
TTITLE10=Mua Hong
TTITLE11=Bay Ngay Doi Mong
EXTD=
EXTT0=
EXTT1=
EXTT2=
EXTT3=
EXTT4=
EXTT5=
EXTT6=
EXTT7=
EXTT8=
EXTT9=
EXTT10=
EXTT11=
PLAYORDER=
